<?xml version="1.0" encoding="UTF-8"?>
<svg version="1.1" xmlns="http://www.w3.org/2000/svg" width="64" height="64">
<path d="M0 0 C0.99773438 0.02320313 1.99546875 0.04640625 3.0234375 0.0703125 C4.52777344 0.09738281 4.52777344 0.09738281 6.0625 0.125 C6.83335938 0.14820313 7.60421875 0.17140625 8.3984375 0.1953125 C8.3984375 1.1853125 8.3984375 2.1753125 8.3984375 3.1953125 C5.0984375 3.1953125 1.7984375 3.1953125 -1.6015625 3.1953125 C-1.6015625 11.1153125 -1.6015625 19.0353125 -1.6015625 27.1953125 C-0.6115625 27.1953125 0.3784375 27.1953125 1.3984375 27.1953125 C1.3778125 26.2259375 1.3571875 25.2565625 1.3359375 24.2578125 C1.3984375 21.1953125 1.3984375 21.1953125 2.3984375 20.1953125 C3.95842798 20.09684283 5.52284294 20.06732632 7.0859375 20.06591797 C8.08367188 20.06276581 9.08140625 20.05961365 10.109375 20.05636597 C11.73746094 20.05940231 11.73746094 20.05940231 13.3984375 20.0625 C15.05746094 20.06106491 15.05746094 20.06106491 16.75 20.05960083 C19.09375058 20.05891883 21.43750303 20.06077446 23.78125 20.06494141 C27.38285538 20.07028936 30.98433603 20.06499703 34.5859375 20.05859375 C36.85677111 20.05925453 39.12760464 20.06053568 41.3984375 20.0625 C43.02652344 20.05946365 43.02652344 20.05946365 44.6875 20.05636597 C45.68523438 20.05951813 46.68296875 20.06267029 47.7109375 20.06591797 C48.59394531 20.06671356 49.47695313 20.06750916 50.38671875 20.06832886 C52.3984375 20.1953125 52.3984375 20.1953125 53.3984375 21.1953125 C53.43924533 23.19489614 53.44098106 25.19576504 53.3984375 27.1953125 C54.3884375 27.1953125 55.3784375 27.1953125 56.3984375 27.1953125 C56.3984375 19.2753125 56.3984375 11.3553125 56.3984375 3.1953125 C40.8884375 3.1953125 25.3784375 3.1953125 9.3984375 3.1953125 C9.3984375 2.2053125 9.3984375 1.2153125 9.3984375 0.1953125 C16.19772169 0.1447231 22.9969576 0.10962583 29.79638672 0.08544922 C32.11085829 0.07537358 34.42531709 0.06171275 36.73974609 0.04443359 C40.06090443 0.02025385 43.3818949 0.0088452 46.703125 0 C47.74274384 -0.01032257 48.78236267 -0.02064514 49.85348511 -0.03128052 C50.81433014 -0.03143158 51.77517517 -0.03158264 52.76513672 -0.03173828 C54.03754715 -0.03840012 54.03754715 -0.03840012 55.33566284 -0.04519653 C57.3984375 0.1953125 57.3984375 0.1953125 59.3984375 2.1953125 C59.65722656 4.77734375 59.65722656 4.77734375 59.6640625 8.0078125 C59.66792969 9.74417969 59.66792969 9.74417969 59.671875 11.515625 C59.66414063 12.72992188 59.65640625 13.94421875 59.6484375 15.1953125 C59.66003906 17.01675781 59.66003906 17.01675781 59.671875 18.875 C59.66929688 20.03257813 59.66671875 21.19015625 59.6640625 22.3828125 C59.66180664 23.44886719 59.65955078 24.51492187 59.65722656 25.61328125 C59.3984375 28.1953125 59.3984375 28.1953125 57.3984375 30.1953125 C55.44955444 30.43582153 55.44955444 30.43582153 53.04052734 30.42236328 C52.13974457 30.42221222 51.23896179 30.42206116 50.31088257 30.42190552 C49.33688507 30.41158295 48.36288757 30.40126038 47.359375 30.390625 C46.36338287 30.3877951 45.36739075 30.38496521 44.34121704 30.38204956 C41.15183632 30.3708309 37.96273372 30.34572331 34.7734375 30.3203125 C32.61458738 30.31028488 30.45573287 30.30115865 28.296875 30.29296875 C22.99730051 30.27088611 17.69788887 30.23739208 12.3984375 30.1953125 C12.3984375 29.2053125 12.3984375 28.2153125 12.3984375 27.1953125 C12.0684375 28.1853125 11.7384375 29.1753125 11.3984375 30.1953125 C9.10702464 30.24915771 6.81525562 30.28803337 4.5234375 30.3203125 C3.24726562 30.34351562 1.97109375 30.36671875 0.65625 30.390625 C-2.6015625 30.1953125 -2.6015625 30.1953125 -4.6015625 28.1953125 C-4.86035156 25.61328125 -4.86035156 25.61328125 -4.8671875 22.3828125 C-4.86976563 21.22523437 -4.87234375 20.06765625 -4.875 18.875 C-4.86726562 17.66070313 -4.85953125 16.44640625 -4.8515625 15.1953125 C-4.85929688 13.98101562 -4.86703125 12.76671875 -4.875 11.515625 C-4.87242187 10.35804687 -4.86984375 9.20046875 -4.8671875 8.0078125 C-4.86493164 6.94175781 -4.86267578 5.87570313 -4.86035156 4.77734375 C-4.49865172 1.16853479 -3.62344159 0.27203015 0 0 Z M4.3984375 23.1953125 C4.3984375 23.5253125 4.3984375 23.8553125 4.3984375 24.1953125 C16.9384375 24.1953125 29.4784375 24.1953125 42.3984375 24.1953125 C42.0684375 25.1853125 41.7384375 26.1753125 41.3984375 27.1953125 C42.3884375 26.8653125 43.3784375 26.5353125 44.3984375 26.1953125 C43.9034375 25.2053125 43.9034375 25.2053125 43.3984375 24.1953125 C45.7084375 24.1953125 48.0184375 24.1953125 50.3984375 24.1953125 C50.3984375 23.8653125 50.3984375 23.5353125 50.3984375 23.1953125 C35.2184375 23.1953125 20.0384375 23.1953125 4.3984375 23.1953125 Z " fill="#000000" transform="translate(4.6015625,11.8046875)"/>
<path d="M0 0 C6.93 0 13.86 0 21 0 C20.67 0.99 20.34 1.98 20 3 C13.4 3 6.8 3 0 3 C0 2.01 0 1.02 0 0 Z " fill="#000000" transform="translate(30,18)"/>
<path d="M0 0 C0.99 0 1.98 0 3 0 C2.25 5.75 2.25 5.75 0 8 C-0.99 8 -1.98 8 -3 8 C-2.37240135 5.07120629 -1.41377341 2.63904371 0 0 Z " fill="#000000" transform="translate(16,44)"/>
<path d="M0 0 C0.99 0 1.98 0 3 0 C3.33 1.65 3.66 3.3 4 5 C4.66 5 5.32 5 6 5 C6 5.99 6 6.98 6 8 C4.125 7.6875 4.125 7.6875 2 7 C0 4 0 4 0 0 Z " fill="#000000" transform="translate(45,44)"/>
<path d="M0 0 C0.99 0 1.98 0 3 0 C3 2.64 3 5.28 3 8 C2.01 8 1.02 8 0 8 C0 5.36 0 2.72 0 0 Z " fill="#000000" transform="translate(38,44)"/>
<path d="M0 0 C0.99 0 1.98 0 3 0 C3 2.64 3 5.28 3 8 C2.01 8 1.02 8 0 8 C0 5.36 0 2.72 0 0 Z " fill="#000000" transform="translate(23,44)"/>
<path d="M0 0 C0.99 0 1.98 0 3 0 C3 2.31 3 4.62 3 7 C2.01 7.33 1.02 7.66 0 8 C0 5.36 0 2.72 0 0 Z " fill="#000000" transform="translate(31,44)"/>
<path d="M0 0 C1.98 0 3.96 0 6 0 C5.67 0.99 5.34 1.98 5 3 C3.35 2.67 1.7 2.34 0 2 C0 1.34 0 0.68 0 0 Z " fill="#000000" transform="translate(52,18)"/>
</svg>
