<?xml version="1.0" encoding="UTF-8"?>
<svg version="1.1" xmlns="http://www.w3.org/2000/svg" width="64" height="64">
<path d="M0 0 C1.41717316 -0.02409439 1.41717316 -0.02409439 2.86297607 -0.04867554 C7.19803286 -0.09300778 11.53293362 -0.13420654 15.86816406 -0.15722656 C18.15537701 -0.17377705 20.44253843 -0.20105484 22.72949219 -0.23925781 C26.02208372 -0.29400738 29.31345993 -0.31590007 32.60644531 -0.33056641 C33.62744324 -0.35323578 34.64844116 -0.37590515 35.70037842 -0.39926147 C42.83803715 -0.37801353 42.83803715 -0.37801353 46.68164062 2.66308594 C47.30135742 3.49791504 47.92107422 4.33274414 48.55957031 5.19287109 C49.05457031 5.68787109 49.05457031 5.68787109 49.55957031 6.19287109 C49.67863083 7.66961813 49.72963719 9.15193749 49.75244141 10.63330078 C49.76850433 11.57808289 49.78456726 12.52286499 49.80111694 13.49627686 C49.84544918 17.83133364 49.88664794 22.1662344 49.90966797 26.50146484 C49.92621846 28.78867779 49.95349625 31.07583921 49.99169922 33.36279297 C50.04644879 36.65538451 50.06834147 39.94676071 50.08300781 43.23974609 C50.10567719 44.26074402 50.12834656 45.28174194 50.15170288 46.3336792 C50.13045493 53.47133793 50.13045493 53.47133793 47.08935547 57.31494141 C46.25452637 57.9346582 45.41969727 58.554375 44.55957031 59.19287109 C44.22957031 59.52287109 43.89957031 59.85287109 43.55957031 60.19287109 C42.08282327 60.31193161 40.60050392 60.36293797 39.11914062 60.38574219 C38.17435852 60.40180511 37.22957642 60.41786804 36.25616455 60.43441772 C31.92110777 60.47874997 27.58620701 60.51994873 23.25097656 60.54296875 C20.96376362 60.55951924 18.6766022 60.58679703 16.38964844 60.625 C13.0970569 60.67974957 9.8056807 60.70164226 6.51269531 60.71630859 C5.49169739 60.73897797 4.47069946 60.76164734 3.41876221 60.78500366 C-3.71889653 60.76375571 -3.71889653 60.76375571 -7.5625 57.72265625 C-8.1822168 56.88782715 -8.80193359 56.05299805 -9.44042969 55.19287109 C-9.77042969 54.86287109 -10.10042969 54.53287109 -10.44042969 54.19287109 C-10.5594902 52.71612405 -10.61049657 51.2338047 -10.63330078 49.75244141 C-10.64936371 48.8076593 -10.66542664 47.8628772 -10.68197632 46.88946533 C-10.72630856 42.55440855 -10.76750732 38.21950779 -10.79052734 33.88427734 C-10.80707783 31.5970644 -10.83435563 29.30990298 -10.87255859 27.02294922 C-10.92730816 23.73035768 -10.94920085 20.43898148 -10.96386719 17.14599609 C-10.98653656 16.12499817 -11.00920593 15.10400024 -11.03256226 14.05206299 C-11.01131431 6.91440426 -11.01131431 6.91440426 -7.97021484 3.07080078 C-7.13538574 2.45108398 -6.30055664 1.83136719 -5.44042969 1.19287109 C-3.8526533 -0.39490529 -2.20244604 0.03390462 0 0 Z M-5.44042969 8.19287109 C-6.9047977 12.05189098 -6.60236912 16.21308693 -6.60839844 20.28271484 C-6.61172684 21.0642543 -6.61505524 21.84579376 -6.6184845 22.65101624 C-6.6235379 24.30094821 -6.62589331 25.95089037 -6.62573242 27.60083008 C-6.62791895 30.11801051 -6.64609127 32.6347525 -6.66503906 35.15185547 C-6.66797335 36.75797377 -6.66995791 38.36409414 -6.67089844 39.97021484 C-6.67808395 40.71931625 -6.68526947 41.46841766 -6.69267273 42.24021912 C-6.66970221 47.52219793 -6.2506635 51.38263728 -2.44042969 55.19287109 C1.4185902 56.65723911 5.57978615 56.35481052 9.64941406 56.36083984 C10.43095352 56.36416824 11.21249298 56.36749664 12.01771545 56.3709259 C13.66764743 56.37597931 15.31758959 56.37833472 16.9675293 56.37817383 C19.48470973 56.38036036 22.00145172 56.39853268 24.51855469 56.41748047 C26.12467299 56.42041476 27.73079336 56.42239932 29.33691406 56.42333984 C30.08601547 56.43052536 30.83511688 56.43771088 31.60691833 56.44511414 C36.88889715 56.42214362 40.7493365 56.00310491 44.55957031 52.19287109 C46.02393833 48.33385121 45.72150974 44.17265526 45.72753906 40.10302734 C45.73086746 39.32148788 45.73419586 38.53994843 45.73762512 37.73472595 C45.74267853 36.08479397 45.74503394 34.43485182 45.74487305 32.78491211 C45.74705958 30.26773167 45.7652319 27.75098969 45.78417969 25.23388672 C45.78711398 23.62776842 45.78909854 22.02164805 45.79003906 20.41552734 C45.79722458 19.66642593 45.8044101 18.91732452 45.81181335 18.14552307 C45.78884284 12.86354426 45.36980412 9.00310491 41.55957031 5.19287109 C37.70055043 3.72850308 33.53935447 4.03093166 29.46972656 4.02490234 C28.6881871 4.02157394 27.90664764 4.01824554 27.10142517 4.01481628 C25.45149319 4.00976288 23.80155104 4.00740747 22.15161133 4.00756836 C19.63443089 4.00538183 17.11768891 3.98720951 14.60058594 3.96826172 C12.99446764 3.96532743 11.38834727 3.96334287 9.78222656 3.96240234 C9.03312515 3.95521683 8.28402374 3.94803131 7.51222229 3.94062805 C2.23024348 3.96359857 -1.63019588 4.38263728 -5.44042969 8.19287109 Z " fill="#000000" transform="translate(12.4404296875,1.80712890625)"/>
<path d="M0 0 C5.28 0 10.56 0 16 0 C16 1.32 16 2.64 16 4 C13.69 4.33 11.38 4.66 9 5 C17.58 13.58 26.16 22.16 35 31 C35.33 28.69 35.66 26.38 36 24 C37.32 24 38.64 24 40 24 C40 29.28 40 34.56 40 40 C34.72 40 29.44 40 24 40 C24 38.68 24 37.36 24 36 C27.465 35.505 27.465 35.505 31 35 C22.42 26.42 13.84 17.84 5 9 C4.67 11.31 4.34 13.62 4 16 C2.68 16 1.36 16 0 16 C0 10.72 0 5.44 0 0 Z " fill="#000000" transform="translate(12,12)"/>
</svg>
