<?xml version="1.0" encoding="UTF-8"?>
<svg version="1.1" xmlns="http://www.w3.org/2000/svg" width="64" height="64">
<path d="M0 0 C0.88464432 -0.00960754 1.76928864 -0.01921509 2.68074036 -0.02911377 C3.63905258 -0.03336365 4.59736481 -0.03761353 5.5847168 -0.04199219 C7.06091743 -0.0505423 7.06091743 -0.0505423 8.56694031 -0.05926514 C10.65252607 -0.06872269 12.73812682 -0.07525211 14.82373047 -0.07910156 C18.01060181 -0.0887962 21.19682534 -0.11980819 24.38354492 -0.15136719 C26.40893171 -0.15789827 28.43432312 -0.16314833 30.4597168 -0.16699219 C31.41195633 -0.17933899 32.36419586 -0.19168579 33.34529114 -0.20440674 C38.26121459 -0.18790617 41.77513044 -0.13472653 45.72143555 3.16113281 C46.99460977 5.70748126 46.88043466 7.58239127 46.93237305 10.43066406 C46.96073242 11.48447266 46.9890918 12.53828125 47.01831055 13.62402344 C47.07011676 15.84521464 47.11446907 18.06659303 47.15112305 20.28808594 C47.18206055 21.34576172 47.21299805 22.4034375 47.24487305 23.49316406 C47.27460205 24.94299683 47.27460205 24.94299683 47.30493164 26.42211914 C47.55618539 29.24667192 47.55618539 29.24667192 49.22851562 31.66113281 C50.9990639 34.62604112 51.09528702 36.40177954 51.0847168 39.82910156 C51.08375 41.41561523 51.08375 41.41561523 51.08276367 43.03417969 C51.06665039 44.12794922 51.05053711 45.22171875 51.03393555 46.34863281 C51.0371582 47.45400391 51.04038086 48.559375 51.04370117 49.69824219 C50.98856147 57.89400689 50.98856147 57.89400689 48.72143555 60.16113281 C45.78393555 60.53613281 45.78393555 60.53613281 42.72143555 60.16113281 C40.84643555 58.34863281 40.84643555 58.34863281 39.72143555 56.16113281 C39.72143555 55.17113281 39.72143555 54.18113281 39.72143555 53.16113281 C25.86143555 53.16113281 12.00143555 53.16113281 -2.27856445 53.16113281 C-2.77356445 55.63613281 -2.77356445 55.63613281 -3.27856445 58.16113281 C-5.27856445 60.16113281 -5.27856445 60.16113281 -8.27856445 60.41113281 C-11.27856445 60.16113281 -11.27856445 60.16113281 -13.27856445 58.16113281 C-13.53735352 55.79443359 -13.53735352 55.79443359 -13.54418945 52.85644531 C-13.54676758 51.798125 -13.5493457 50.73980469 -13.55200195 49.64941406 C-13.54426758 48.53953125 -13.5365332 47.42964844 -13.52856445 46.28613281 C-13.53629883 45.18398438 -13.5440332 44.08183594 -13.55200195 42.94628906 C-13.54942383 41.88539062 -13.5468457 40.82449219 -13.54418945 39.73144531 C-13.54193359 38.75965332 -13.53967773 37.78786133 -13.53735352 36.78662109 C-13.2679277 34.05321993 -12.5008463 32.57706327 -11.27856445 30.16113281 C-10.97894826 27.6504302 -10.97894826 27.6504302 -11.00512695 24.95019531 C-10.98450195 23.95246094 -10.96387695 22.95472656 -10.94262695 21.92675781 C-10.91668347 19.84090199 -10.89839555 17.75493626 -10.88793945 15.66894531 C-10.74624137 9.56018361 -10.41391736 5.79210854 -6.27856445 1.16113281 C-3.95769099 0.00069608 -2.58442738 0.02262665 0 0 Z M-5.27856445 5.16113281 C-6.45282709 7.50965809 -6.39364618 8.89887347 -6.3762207 11.51269531 C-6.37299805 12.36347656 -6.36977539 13.21425781 -6.36645508 14.09082031 C-6.35807617 14.98027344 -6.34969727 15.86972656 -6.34106445 16.78613281 C-6.33655273 17.68332031 -6.33204102 18.58050781 -6.32739258 19.50488281 C-6.31559036 21.7236993 -6.29912601 23.942383 -6.27856445 26.16113281 C-5.61856445 26.16113281 -4.95856445 26.16113281 -4.27856445 26.16113281 C-4.17543945 24.88238281 -4.07231445 23.60363281 -3.96606445 22.28613281 C-3.7902832 20.10644531 -3.7902832 20.10644531 -3.27856445 18.16113281 C0.5704341 15.59513378 3.70989731 15.93900855 8.15893555 16.03613281 C9.30458984 16.04966797 9.30458984 16.04966797 10.47338867 16.06347656 C11.90045385 16.08086465 13.32747928 16.10237156 14.75439453 16.12939453 C18.07953562 16.18304581 21.4008782 16.15377911 24.7253418 16.09082031 C26.24486959 16.07230561 27.764401 16.05408512 29.28393555 16.03613281 C30.05157227 16.019375 30.81920898 16.00261719 31.61010742 15.98535156 C35.51765742 15.95128399 37.39428724 15.94303394 40.72143555 18.16113281 C41.42196015 20.82419582 41.49888372 23.40149018 41.72143555 26.16113281 C42.38143555 26.16113281 43.04143555 26.16113281 43.72143555 26.16113281 C43.80246959 23.24390733 43.86194636 20.32893766 43.90893555 17.41113281 C43.93407227 16.58613281 43.95920898 15.76113281 43.98510742 14.91113281 C44.05939452 10.091769 44.05939452 10.091769 42.3972168 5.64550781 C38.59954453 2.28160231 33.81017925 2.999601 29.0378418 2.99316406 C27.75997047 2.98817146 27.75997047 2.98817146 26.45628357 2.983078 C24.65494323 2.97801676 22.85359353 2.97566943 21.05224609 2.97583008 C18.29793848 2.97364393 15.54403165 2.95548082 12.78979492 2.93652344 C11.03914525 2.93358928 9.28849368 2.93160463 7.5378418 2.93066406 C6.71482071 2.92347855 5.89179962 2.91629303 5.0438385 2.90888977 C-0.44894179 2.8672763 -0.44894179 2.8672763 -5.27856445 5.16113281 Z M-0.15356445 19.43066406 C-1.64193437 21.37606433 -1.64193437 21.37606433 -1.27856445 25.16113281 C4.66143555 25.16113281 10.60143555 25.16113281 16.72143555 25.16113281 C16.72143555 23.51113281 16.72143555 21.86113281 16.72143555 20.16113281 C13.27468146 17.86329675 11.78815443 17.86358398 7.72143555 17.84863281 C6.66956055 17.831875 5.61768555 17.81511719 4.53393555 17.79785156 C1.73852325 17.94448642 1.73852325 17.94448642 -0.15356445 19.43066406 Z M20.72143555 20.16113281 C20.72143555 21.81113281 20.72143555 23.46113281 20.72143555 25.16113281 C26.66143555 25.16113281 32.60143555 25.16113281 38.72143555 25.16113281 C38.39143555 23.18113281 38.06143555 21.20113281 37.72143555 19.16113281 C35.01042785 17.80562896 32.80804386 17.99196074 29.78393555 17.97363281 C28.72303711 17.95945312 27.66213867 17.94527344 26.5690918 17.93066406 C23.51865886 17.94548214 23.51865886 17.94548214 20.72143555 20.16113281 Z M-8.09106445 32.91113281 C-10.83694082 36.33778581 -10.83694082 36.33778581 -10.27856445 42.16113281 C0.94143555 42.49113281 12.16143555 42.82113281 23.72143555 43.16113281 C24.21643555 44.64613281 24.21643555 44.64613281 24.72143555 46.16113281 C13.17143555 46.16113281 1.62143555 46.16113281 -10.27856445 46.16113281 C-10.27856445 47.48113281 -10.27856445 48.80113281 -10.27856445 50.16113281 C8.86143555 50.16113281 28.00143555 50.16113281 47.72143555 50.16113281 C47.72143555 48.84113281 47.72143555 47.52113281 47.72143555 46.16113281 C43.43143555 45.83113281 39.14143555 45.50113281 34.72143555 45.16113281 C34.72143555 44.50113281 34.72143555 43.84113281 34.72143555 43.16113281 C41.15643555 42.66613281 41.15643555 42.66613281 47.72143555 42.16113281 C47.98532691 36.2739747 47.98532691 36.2739747 44.97143555 32.34863281 C44.4609668 31.7646875 43.95049805 31.18074219 43.42456055 30.57910156 C39.45154103 27.27128944 34.10918863 28.0000452 29.1940918 27.99316406 C28.36816025 27.98983566 27.5422287 27.98650726 26.69126892 27.983078 C24.94717972 27.97802327 23.20308089 27.97566923 21.45898438 27.97583008 C18.79695654 27.97364351 16.13534324 27.95547236 13.47338867 27.93652344 C11.77612446 27.93358919 10.07885829 27.93160461 8.3815918 27.93066406 C7.58874283 27.92347855 6.79589386 27.91629303 5.97901917 27.90888977 C-0.19779892 27.93431288 -3.65512925 28.57377395 -8.09106445 32.91113281 Z M-10.27856445 53.16113281 C-9.94856445 54.15113281 -9.61856445 55.14113281 -9.27856445 56.16113281 C-8.28856445 56.16113281 -7.29856445 56.16113281 -6.27856445 56.16113281 C-6.27856445 55.17113281 -6.27856445 54.18113281 -6.27856445 53.16113281 C-7.59856445 53.16113281 -8.91856445 53.16113281 -10.27856445 53.16113281 Z M43.72143555 53.16113281 C43.72143555 54.15113281 43.72143555 55.14113281 43.72143555 56.16113281 C45.04143555 55.83113281 46.36143555 55.50113281 47.72143555 55.16113281 C47.72143555 54.50113281 47.72143555 53.84113281 47.72143555 53.16113281 C46.40143555 53.16113281 45.08143555 53.16113281 43.72143555 53.16113281 Z " fill="#000000" transform="translate(13.278564453125,1.8388671875)"/>
<path d="M0 0 C0.66 0.33 1.32 0.66 2 1 C2 1.99 2 2.98 2 4 C1.01 4 0.02 4 -1 4 C-0.67 2.68 -0.34 1.36 0 0 Z " fill="#000000" transform="translate(42,44)"/>
</svg>
