<?xml version="1.0" encoding="UTF-8"?>
<svg version="1.1" xmlns="http://www.w3.org/2000/svg" width="64" height="64">
<path d="M0 0 C2.875 1.4375 2.875 1.4375 5 4 C5.83147076 8.27501474 5.71291624 11.78210142 3.5 15.5625 C3.005 16.036875 2.51 16.51125 2 17 C3.98 17.99 5.96 18.98 8 20 C8.66 19.34 9.32 18.68 10 18 C9.34 17.01 8.68 16.02 8 15 C7.67438966 11.41828629 7.5726163 8.90225448 9.125 5.625 C11.74934598 3.35056682 13.54847562 3.06903049 17 3 C21.56521739 5.13043478 21.56521739 5.13043478 23 8 C23.23553948 12.23971058 23.32845886 15.36178302 21 19 C21.804375 19.61875 22.60875 20.2375 23.4375 20.875 C26 23 26 23 27 25 C27 27.64 27 30.28 27 33 C7.2 33 -12.6 33 -33 33 C-33 25 -33 25 -31.125 22.125 C-29.75 20.75 -28.375 19.375 -27 18 C-27.66 17.01 -28.32 16.02 -29 15 C-29.54275757 11.50379537 -29.67520303 8.16284966 -27.875 5.0625 C-25.17323836 3.53150174 -23.10564495 3.1242258 -20 3 C-15.43478261 5.13043478 -15.43478261 5.13043478 -14 8 C-13.76446052 12.23971058 -13.67154114 15.36178302 -16 19 C-15.01 19.33 -14.02 19.66 -13 20 C-10.32323453 18.62750037 -10.32323453 18.62750037 -8 17 C-8.495 16.525625 -8.99 16.05125 -9.5 15.5625 C-11.71291624 11.78210142 -11.83147076 8.27501474 -11 4 C-7.77123438 0.10648852 -4.96361941 -0.8272699 0 0 Z M-7.9375 4.625 C-9.38013628 7.8497164 -8.99823936 9.64876786 -8 13 C-6.89350331 15.02478463 -6.89350331 15.02478463 -5 16 C-1.86861441 15.92171536 -0.45727596 15.41154837 1.875 13.3125 C3.40903612 10.15920352 2.93901464 8.3226672 2 5 C0.11861241 2.71069764 0.11861241 2.71069764 -2.9375 2.625 C-6.02433444 2.72077453 -6.02433444 2.72077453 -7.9375 4.625 Z M-25.9375 7.625 C-27.29292918 10.05628669 -27.29292918 10.05628669 -26.4375 13.125 C-25.26112455 16.08627463 -25.26112455 16.08627463 -22.875 17.375 C-22.25625 17.58125 -21.6375 17.7875 -21 18 C-18.39353412 16.40248866 -17.17500536 15.45501394 -16.0625 12.5625 C-15.80265945 9.95568495 -15.80265945 9.95568495 -17.125 7.6875 C-18.90357791 5.79819692 -18.90357791 5.79819692 -21.5 5.5 C-24.08770363 5.80959678 -24.08770363 5.80959678 -25.9375 7.625 Z M11.0625 7.625 C9.70707082 10.05628669 9.70707082 10.05628669 10.5625 13.125 C11.73887545 16.08627463 11.73887545 16.08627463 14.125 17.375 C14.74375 17.58125 15.3625 17.7875 16 18 C18.60646588 16.40248866 19.82499464 15.45501394 20.9375 12.5625 C21.19734055 9.95568495 21.19734055 9.95568495 19.875 7.6875 C18.09642209 5.79819692 18.09642209 5.79819692 15.5 5.5 C12.91229637 5.80959678 12.91229637 5.80959678 11.0625 7.625 Z M-11.0625 22.125 C-13.47156914 25.27074706 -13.47156914 25.27074706 -14 31 C-6.74 31 0.52 31 8 31 C6.823678 23.57700489 6.823678 23.57700489 4.18359375 21.03125 C-1.01938457 18.57402947 -6.3897749 18.88270095 -11.0625 22.125 Z M-30 25 C-30.33 26.98 -30.66 28.96 -31 31 C-26.05 31 -21.1 31 -16 31 C-15.67 28.36 -15.34 25.72 -15 23 C-20.53186686 19.31208876 -25.5916468 20.07301701 -30 25 Z M9 23 C9.33 25.64 9.66 28.28 10 31 C14.95 31 19.9 31 25 31 C24.58867229 25.23159996 24.58867229 25.23159996 21.875 22.625 C17.16035253 19.96019925 13.48868923 20.00754051 9 23 Z " fill="#FFFFFF" transform="translate(35,28)"/>
<path d="M0 0 C0.99 0.33 1.98 0.66 3 1 C3.268125 1.66 3.53625 2.32 3.8125 3 C4.204375 3.66 4.59625 4.32 5 5 C8.05908413 5.81584568 8.05908413 5.81584568 11 6 C10.42655063 8.86724686 10.1385485 9.8614515 8 12 C7.83322718 15.58343976 7.83322718 15.58343976 8 19 C7.40832031 18.91621094 6.81664062 18.83242188 6.20703125 18.74609375 C1.90060543 18.19110576 -1.75552644 17.76773348 -6 19 C-5.9071875 17.3603125 -5.9071875 17.3603125 -5.8125 15.6875 C-5.61902549 12.08357724 -5.61902549 12.08357724 -7.5 10.25 C-7.995 9.8375 -8.49 9.425 -9 9 C-9 8.01 -9 7.02 -9 6 C-8.071875 5.938125 -7.14375 5.87625 -6.1875 5.8125 C-2.8109337 5.31172896 -2.8109337 5.31172896 -1.125 2.4375 C-0.75375 1.633125 -0.3825 0.82875 0 0 Z M0 5 C0 5.99 0 6.98 0 8 C-1.65 8 -3.3 8 -5 8 C-4.01 10.31 -3.02 12.62 -2 15 C-0.02 15 1.96 15 4 15 C4.309375 14.21625 4.61875 13.4325 4.9375 12.625 C6 10 6 10 7 8 C5.35 8 3.7 8 2 8 C2 7.01 2 6.02 2 5 C1.34 5 0.68 5 0 5 Z " fill="#FFFFFF" transform="translate(31,3)"/>
<path d="M0 0 C0.99 0 1.98 0 3 0 C3.66 1.98 4.32 3.96 5 6 C6.98 6 8.96 6 11 6 C11 6.99 11 7.98 11 9 C10.505 9.4125 10.01 9.825 9.5 10.25 C7.17257175 12.96533296 7.80550164 15.56386238 8 19 C6.783125 18.814375 5.56625 18.62875 4.3125 18.4375 C0.97022061 18.01006818 -1.71968417 18.07741117 -5 19 C-4.9175 17.948125 -4.835 16.89625 -4.75 15.8125 C-5.03525487 11.46236331 -6.02449969 10.0684847 -9 7 C-8 6 -8 6 -4.9375 5.9375 C-3.4834375 5.9684375 -3.4834375 5.9684375 -2 6 C-1.34 4.02 -0.68 2.04 0 0 Z M1 4 C0.67 5.32 0.34 6.64 0 8 C-1.32 8.33 -2.64 8.66 -4 9 C-3.34 10.98 -2.68 12.96 -2 15 C0.31 15 2.62 15 5 15 C5.2165625 13.824375 5.2165625 13.824375 5.4375 12.625 C6 10 6 10 7 8 C6.38125 7.896875 5.7625 7.79375 5.125 7.6875 C3 7 3 7 1 4 Z " fill="#FFFFFF" transform="translate(51,9)"/>
<path d="M0 0 C0.99 0 1.98 0 3 0 C3.66 1.98 4.32 3.96 5 6 C6.98 6 8.96 6 11 6 C11 6.99 11 7.98 11 9 C10.505 9.4125 10.01 9.825 9.5 10.25 C7.17257175 12.96533296 7.80550164 15.56386238 8 19 C6.783125 18.814375 5.56625 18.62875 4.3125 18.4375 C0.97022061 18.01006818 -1.71968417 18.07741117 -5 19 C-4.9175 17.948125 -4.835 16.89625 -4.75 15.8125 C-5.03525487 11.46236331 -6.02449969 10.0684847 -9 7 C-8 6 -8 6 -4.9375 5.9375 C-3.4834375 5.9684375 -3.4834375 5.9684375 -2 6 C-1.34 4.02 -0.68 2.04 0 0 Z M1 4 C0.67 4.99 0.34 5.98 0 7 C-2.0625 8.1875 -2.0625 8.1875 -4 9 C-3.01 10.485 -3.01 10.485 -2 12 C-1.67 12.99 -1.34 13.98 -1 15 C0.98 15 2.96 15 5 15 C5.66 12.69 6.32 10.38 7 8 C5.68 8 4.36 8 3 8 C2.34 6.68 1.68 5.36 1 4 Z " fill="#FFFFFF" transform="translate(10,9)"/>
</svg>
