<?xml version="1.0" standalone="no"?>
<!DOCTYPE svg PUBLIC "-//W3C//DTD SVG 20010904//EN"
 "http://www.w3.org/TR/2001/REC-SVG-20010904/DTD/svg10.dtd">
<svg version="1.0" xmlns="http://www.w3.org/2000/svg"
 width="64.000000pt" height="64.000000pt" viewBox="0 0 64.000000 64.000000"
 preserveAspectRatio="xMidYMid meet">

<g transform="translate(0.000000,64.000000) scale(0.100000,-0.100000)"
fill="#000000" stroke="none">
<path d="M56 594 c-24 -23 -24 -525 0 -548 13 -13 46 -16 204 -16 201 0 220 4
220 51 0 10 7 19 15 19 10 0 15 -11 15 -35 0 -32 2 -35 29 -35 60 0 61 6 61
290 0 284 -1 290 -61 290 -27 0 -29 -3 -29 -35 0 -24 -5 -35 -15 -35 -8 0 -15
9 -15 19 0 47 -19 51 -220 51 -158 0 -191 -3 -204 -16z m399 -274 l0 -265
-195 0 -195 0 -3 255 c-1 140 0 260 3 268 3 10 47 12 197 10 l193 -3 0 -265z
m120 0 l0 -265 -22 -3 -23 -3 0 271 0 271 23 -3 22 -3 0 -265z m-65 160 c0
-29 -4 -40 -15 -40 -11 0 -15 11 -15 40 0 29 4 40 15 40 11 0 15 -11 15 -40z
m0 -160 c0 -82 -3 -100 -15 -100 -12 0 -15 18 -15 100 0 82 3 100 15 100 12 0
15 -18 15 -100z m0 -160 c0 -29 -4 -40 -15 -40 -11 0 -15 11 -15 40 0 29 4 40
15 40 11 0 15 -11 15 -40z"/>
<path d="M80 320 l0 -250 180 0 180 0 0 250 0 250 -180 0 -180 0 0 -250z m340
145 c0 -69 -3 -85 -15 -85 -11 0 -15 13 -15 54 0 80 -4 86 -60 86 -56 0 -60
-6 -60 -86 0 -30 -4 -54 -10 -54 -5 0 -10 24 -10 54 0 80 -4 86 -60 86 -56 0
-60 -6 -60 -86 0 -41 -4 -54 -15 -54 -12 0 -15 16 -15 85 l0 85 160 0 160 0 0
-85z m-195 25 c4 -6 -10 -10 -35 -10 -25 0 -39 4 -35 10 3 6 19 10 35 10 16 0
32 -4 35 -10z m140 0 c4 -6 -10 -10 -35 -10 -25 0 -39 4 -35 10 3 6 19 10 35
10 16 0 32 -4 35 -10z m-135 -50 c0 -17 -7 -20 -40 -20 -33 0 -40 3 -40 20 0
17 7 20 40 20 33 0 40 -3 40 -20z m140 0 c0 -17 -7 -20 -40 -20 -33 0 -40 3
-40 20 0 17 7 20 40 20 33 0 40 -3 40 -20z m-145 -50 c-3 -5 -19 -10 -35 -10
-16 0 -32 5 -35 10 -4 6 10 10 35 10 25 0 39 -4 35 -10z m140 0 c-3 -5 -19
-10 -35 -10 -16 0 -32 5 -35 10 -4 6 10 10 35 10 25 0 39 -4 35 -10z m55 -165
c0 -113 -2 -135 -15 -135 -12 0 -15 14 -15 63 0 40 -5 70 -15 83 -8 10 -15 36
-15 57 0 34 -2 37 -30 37 -28 0 -30 -3 -30 -37 0 -21 -7 -47 -15 -57 -10 -13
-15 -43 -15 -83 0 -35 -4 -63 -10 -63 -6 0 -10 28 -10 63 0 40 -5 70 -15 83
-8 10 -15 36 -15 57 0 34 -2 37 -30 37 -28 0 -30 -3 -30 -37 0 -21 -7 -47 -15
-57 -10 -13 -15 -43 -15 -83 0 -49 -3 -63 -15 -63 -13 0 -15 22 -15 135 l0
135 160 0 160 0 0 -135z m-220 75 c0 -5 -4 -10 -10 -10 -5 0 -10 5 -10 10 0 6
5 10 10 10 6 0 10 -4 10 -10z m140 0 c0 -5 -4 -10 -10 -10 -5 0 -10 5 -10 10
0 6 5 10 10 10 6 0 10 -4 10 -10z m-140 -44 c0 -7 7 -19 15 -26 25 -21 17 -30
-25 -30 -42 0 -50 9 -25 30 8 7 15 19 15 26 0 8 5 14 10 14 6 0 10 -6 10 -14z
m140 0 c0 -7 7 -19 15 -26 25 -21 17 -30 -25 -30 -42 0 -50 9 -25 30 8 7 15
19 15 26 0 8 5 14 10 14 6 0 10 -6 10 -14z m-110 -91 c0 -11 -11 -15 -40 -15
-29 0 -40 4 -40 15 0 11 11 15 40 15 29 0 40 -4 40 -15z m140 0 c0 -11 -11
-15 -40 -15 -29 0 -40 4 -40 15 0 11 11 15 40 15 29 0 40 -4 40 -15z m-140
-55 c0 -17 -7 -20 -40 -20 -33 0 -40 3 -40 20 0 17 7 20 40 20 33 0 40 -3 40
-20z m140 0 c0 -17 -7 -20 -40 -20 -33 0 -40 3 -40 20 0 17 7 20 40 20 33 0
40 -3 40 -20z"/>
</g>
</svg>
