<?xml version="1.0" standalone="no"?>
<!DOCTYPE svg PUBLIC "-//W3C//DTD SVG 20010904//EN"
 "http://www.w3.org/TR/2001/REC-SVG-20010904/DTD/svg10.dtd">
<svg version="1.0" xmlns="http://www.w3.org/2000/svg"
 width="64.000000pt" height="64.000000pt" viewBox="0 0 64.000000 64.000000"
 preserveAspectRatio="xMidYMid meet">

<g transform="translate(0.000000,64.000000) scale(0.100000,-0.100000)"
fill="#000000" stroke="none">
<path d="M226 584 c-70 -22 -149 -103 -170 -174 -34 -113 -11 -206 69 -286 41
-41 65 -56 110 -70 219 -63 414 132 351 351 -14 45 -29 69 -70 110 -80 80
-178 103 -290 69z m178 -26 c55 -16 138 -99 154 -154 24 -81 10 -176 -32 -228
l-21 -27 -60 61 -59 60 52 0 52 0 0 45 0 45 -98 0 -98 0 -73 74 -73 73 29 20
c60 43 147 54 227 31z m-214 -196 l-71 -3 3 -42 3 -42 116 -3 115 -3 68 -68
68 -68 -29 -20 c-99 -70 -230 -57 -318 32 -89 88 -102 219 -32 318 l20 29 64
-64 64 -63 -71 -3z m120 -47 c11 -13 2 -15 -74 -15 -70 0 -86 3 -86 15 0 22
142 22 160 0z m100 0 c0 -10 -10 -15 -29 -15 -16 0 -34 7 -41 15 -11 13 -7 15
29 15 30 0 41 -4 41 -15z m60 0 c0 -8 -9 -15 -20 -15 -11 0 -20 7 -20 15 0 8
9 15 20 15 11 0 20 -7 20 -15z"/>
<path d="M404 467 c-8 -21 1 -92 11 -92 6 0 11 24 12 53 1 48 -11 70 -23 39z"/>
<path d="M457 467 c-5 -13 0 -57 9 -86 3 -10 8 -11 15 -4 7 7 8 29 4 57 -7 45
-18 58 -28 33z"/>
</g>
</svg>
