<?xml version="1.0" encoding="UTF-8"?>
<svg version="1.1" xmlns="http://www.w3.org/2000/svg" width="64" height="64">
<path d="M0 0 C2.31 0 4.62 0 7 0 C7 5.28 7 10.56 7 16 C4.69 16 2.38 16 0 16 C-0.495 13.525 -0.495 13.525 -1 11 C-7.93 11 -14.86 11 -22 11 C-22 11.99 -22 12.98 -22 14 C-20.35 14.66 -18.7 15.32 -17 16 C-17 17.98 -17 19.96 -17 22 C-16.401875 22.226875 -15.80375 22.45375 -15.1875 22.6875 C-10.20662339 25.67602597 -9.10149943 31.35356307 -7.453125 36.59765625 C-7 39 -7 39 -8 43 C-19.88 43 -31.76 43 -44 43 C-44.33 41.68 -44.66 40.36 -45 39 C-44.34 38.01 -43.68 37.02 -43 36 C-42.68254456 34.55110081 -42.41510894 33.09070153 -42.1875 31.625 C-41.26206076 27.03482139 -39.39931048 25.22934496 -36 22 C-35.03279005 19.66789479 -34.53562211 17.48333886 -34 15 C-32.68 14.67 -31.36 14.34 -30 14 C-29.87625 12.72125 -29.7525 11.4425 -29.625 10.125 C-29.25 6.25 -29.25 6.25 -27 4 C-24.38623047 3.77294922 -24.38623047 3.77294922 -21.1171875 3.8046875 C-19.36728516 3.81435547 -19.36728516 3.81435547 -17.58203125 3.82421875 C-16.35871094 3.84097656 -15.13539062 3.85773438 -13.875 3.875 C-12.64394531 3.88402344 -11.41289063 3.89304688 -10.14453125 3.90234375 C-7.09616185 3.92597452 -4.04817618 3.95891946 -1 4 C-0.67 2.68 -0.34 1.36 0 0 Z M2 3 C2 6.3 2 9.6 2 13 C2.33 13 2.66 13 3 13 C3 9.7 3 6.4 3 3 C2.67 3 2.34 3 2 3 Z M-25 7 C-27.36980013 9.95377498 -27.36980013 9.95377498 -27 14 C-26.34 14 -25.68 14 -25 14 C-24.67 12.35 -24.34 10.7 -24 9 C-16.41 8.67 -8.82 8.34 -1 8 C-1 7.67 -1 7.34 -1 7 C-4.95819611 6.91321697 -8.91614934 6.85968267 -12.875 6.8125 C-14.00292969 6.78736328 -15.13085938 6.76222656 -16.29296875 6.73632812 C-17.90751953 6.72182617 -17.90751953 6.72182617 -19.5546875 6.70703125 C-20.54968262 6.6913208 -21.54467773 6.67561035 -22.56982422 6.65942383 C-23.77276123 6.82800903 -23.77276123 6.82800903 -25 7 Z M-32 18 C-32 18.99 -32 19.98 -32 21 C-28.04 21 -24.08 21 -20 21 C-20 20.01 -20 19.02 -20 18 C-23.96 18 -27.92 18 -32 18 Z M-38 29 C-38.33 31.31 -38.66 33.62 -39 36 C-30.42 36 -21.84 36 -13 36 C-13.74682432 28.82999325 -13.74682432 28.82999325 -18 24 C-21.54841644 23.20747089 -21.54841644 23.20747089 -25.4375 23.375 C-26.73558594 23.36210937 -28.03367187 23.34921875 -29.37109375 23.3359375 C-33.88707519 24.16232808 -35.32997195 25.29689567 -38 29 Z M-41 39 C-41 39.33 -41 39.66 -41 40 C-31.1 40 -21.2 40 -11 40 C-11 39.67 -11 39.34 -11 39 C-20.9 39 -30.8 39 -41 39 Z " fill="#000000" transform="translate(51,0)"/>
<path d="M0 0 C0.99 0.33 1.98 0.66 3 1 C3 2.98 3 4.96 3 7 C2.01 7.33 1.02 7.66 0 8 C0 5.36 0 2.72 0 0 Z " fill="#000000" transform="translate(24,44)"/>
<path d="M0 0 C0.99 0 1.98 0 3 0 C3 2.31 3 4.62 3 7 C2.01 7 1.02 7 0 7 C0 4.69 0 2.38 0 0 Z " fill="#000000" transform="translate(28,57)"/>
<path d="M0 0 C0.99 0 1.98 0 3 0 C3 2.31 3 4.62 3 7 C2.01 7 1.02 7 0 7 C0 4.69 0 2.38 0 0 Z " fill="#000000" transform="translate(32,53)"/>
<path d="M0 0 C0.99 0 1.98 0 3 0 C3 2.31 3 4.62 3 7 C2.01 7 1.02 7 0 7 C0 4.69 0 2.38 0 0 Z " fill="#000000" transform="translate(15,53)"/>
<path d="M0 0 C0.99 0 1.98 0 3 0 C3 2.31 3 4.62 3 7 C2.01 7 1.02 7 0 7 C0 4.69 0 2.38 0 0 Z " fill="#000000" transform="translate(28,49)"/>
<path d="M0 0 C0.99 0 1.98 0 3 0 C3 2.31 3 4.62 3 7 C2.01 7 1.02 7 0 7 C0 4.69 0 2.38 0 0 Z " fill="#000000" transform="translate(11,49)"/>
<path d="M0 0 C0.66 0 1.32 0 2 0 C2 2.31 2 4.62 2 7 C1.01 7 0.02 7 -1 7 C-1.04254356 5.00045254 -1.04080783 2.99958364 -1 1 C-0.67 0.67 -0.34 0.34 0 0 Z " fill="#000000" transform="translate(20,57)"/>
<path d="M0 0 C0.99 0 1.98 0 3 0 C3 2.31 3 4.62 3 7 C2.01 6.67 1.02 6.34 0 6 C0 4.02 0 2.04 0 0 Z " fill="#000000" transform="translate(36,49)"/>
<path d="M0 0 C0.99 0 1.98 0 3 0 C3 2.31 3 4.62 3 7 C2.01 6.67 1.02 6.34 0 6 C0 4.02 0 2.04 0 0 Z " fill="#000000" transform="translate(19,49)"/>
<path d="M0 0 C0.66 0.33 1.32 0.66 2 1 C2 2.98 2 4.96 2 7 C1.01 7 0.02 7 -1 7 C-1.04254356 5.00045254 -1.04080783 2.99958364 -1 1 C-0.67 0.67 -0.34 0.34 0 0 Z " fill="#000000" transform="translate(33,44)"/>
<path d="M0 0 C0.66 0.33 1.32 0.66 2 1 C2 2.98 2 4.96 2 7 C1.01 7 0.02 7 -1 7 C-1.04254356 5.00045254 -1.04080783 2.99958364 -1 1 C-0.67 0.67 -0.34 0.34 0 0 Z " fill="#000000" transform="translate(16,44)"/>
<path d="M0 0 C0.99 0.33 1.98 0.66 3 1 C3 2.65 3 4.3 3 6 C2.01 6.33 1.02 6.66 0 7 C0 4.69 0 2.38 0 0 Z " fill="#000000" transform="translate(24,53)"/>
</svg>
