<?xml version="1.0" encoding="UTF-8"?>
<svg version="1.1" xmlns="http://www.w3.org/2000/svg" width="64" height="64">
<path d="M0 0 C3.98361471 2.08464584 6.50312088 4.05251618 8.03125 8.27734375 C8.81495197 13.95698164 8.9628218 18.67819104 5.53125 23.46484375 C4.70625 24.39296875 3.88125 25.32109375 3.03125 26.27734375 C3.8975 26.50421875 4.76375 26.73109375 5.65625 26.96484375 C11.88111651 29.38562517 15.52569465 32.96448112 18.28515625 38.94140625 C19.67154846 43.28204784 19.86471038 47.74746597 20.03125 52.27734375 C18.05125 52.77234375 18.05125 52.77234375 16.03125 53.27734375 C15.95648438 52.50390625 15.88171875 51.73046875 15.8046875 50.93359375 C14.8913737 43.69871583 13.60840926 38.24543422 8.03125 33.27734375 C2.21591486 29.3633897 -4.06969227 28.05552589 -10.96875 29.27734375 C-16.98629489 31.38997821 -21.42076036 33.85638104 -24.96875 39.27734375 C-26.08263419 42.83342274 -26.08263419 42.83342274 -26.71875 46.58984375 C-26.96109375 47.84410156 -27.2034375 49.09835938 -27.453125 50.390625 C-27.62328125 51.34324219 -27.7934375 52.29585937 -27.96875 53.27734375 C-28.95875 53.27734375 -29.94875 53.27734375 -30.96875 53.27734375 C-31.41260532 45.87975509 -31.79458822 39.29623641 -26.96875 33.27734375 C-23.3298507 29.86960404 -19.92599742 27.24002349 -14.96875 26.27734375 C-15.608125 25.51421875 -16.2475 24.75109375 -16.90625 23.96484375 C-20.1436617 19.7463982 -20.42447565 16.02061314 -20.38671875 10.85546875 C-19.69257199 6.57381583 -17.27700045 3.94822484 -13.96875 1.27734375 C-9.52914743 -1.35287805 -4.84401878 -1.77806245 0 0 Z M-13.96875 6.27734375 C-16.16940096 10.039747 -17.1713347 12.12936377 -16.40625 16.46484375 C-14.57305315 20.05153324 -12.5952931 22.4640722 -8.96875 24.27734375 C-5.64891366 24.57244031 -3.39355291 24.44528909 -0.28125 23.21484375 C2.89577684 20.55301045 3.88931155 18.24054189 5.03125 14.27734375 C4.228103 9.72617742 2.53663446 7.23501188 -0.96875 4.27734375 C-5.67247525 1.92548112 -10.07471594 3.01477467 -13.96875 6.27734375 Z " fill="#000000" transform="translate(30.96875,5.72265625)"/>
<path d="M0 0 C2.90296927 -0.34559158 5.12537491 -0.51874316 7.69921875 1.0078125 C10.40347821 3.19479231 11.88889766 4.66669298 13 8 C13.37290034 13.03415457 12.98878273 15.89042374 10 20 C10.54269531 20.36351563 11.08539063 20.72703125 11.64453125 21.1015625 C16.10252623 24.23420762 19.34145005 26.60971268 21 32 C21.21634718 35.35086559 21.1788419 38.64837031 21 42 C20.01 42 19.02 42 18 42 C17.90203125 41.33613281 17.8040625 40.67226563 17.703125 39.98828125 C16.80520244 34.68589374 16.11353636 30.77074166 12 27 C8.05196454 24.59684798 4.57601194 23.54476333 0 23 C0 21.68 0 20.36 0 19 C1.7015625 18.319375 1.7015625 18.319375 3.4375 17.625 C7.04721692 16.42904194 7.04721692 16.42904194 8 14 C8.41655222 9.89408669 8.41655222 9.89408669 6.8125 6.25 C4.64807327 4.75729191 2.47468755 3.86948482 0 3 C0 2.01 0 1.02 0 0 Z " fill="#000000" transform="translate(43,11)"/>
</svg>
