<?xml version="1.0" standalone="no"?>
<!DOCTYPE svg PUBLIC "-//W3C//DTD SVG 20010904//EN"
 "http://www.w3.org/TR/2001/REC-SVG-20010904/DTD/svg10.dtd">
<svg version="1.0" xmlns="http://www.w3.org/2000/svg"
 width="64.000000pt" height="64.000000pt" viewBox="0 0 64.000000 64.000000"
 preserveAspectRatio="xMidYMid meet">

<g transform="translate(0.000000,64.000000) scale(0.100000,-0.100000)"
fill="#000000" stroke="none">
<path d="M205 537 c-84 -28 -195 -106 -195 -137 0 -29 18 -25 63 16 22 20 65
48 96 63 48 22 69 26 151 26 82 0 103 -4 151 -26 31 -15 74 -43 96 -63 45 -41
63 -45 63 -16 0 23 -85 90 -155 122 -61 27 -208 35 -270 15z"/>
<path d="M250 411 c-70 -23 -150 -80 -150 -108 0 -23 31 -14 71 20 42 36 96
57 149 57 53 0 107 -21 149 -57 62 -53 102 -36 44 19 -64 60 -191 93 -263 69z"/>
<path d="M260 273 c-8 -3 -27 -17 -42 -31 -21 -19 -25 -29 -17 -38 9 -11 17
-9 43 11 45 34 107 34 152 0 26 -20 34 -22 43 -11 8 9 3 20 -19 41 -25 24 -40
29 -87 32 -32 1 -65 0 -73 -4z"/>
<path d="M307 124 c-14 -15 -6 -34 14 -34 14 0 19 5 17 17 -3 18 -20 27 -31
17z"/>
</g>
</svg>
